<?xml version="1.0" encoding="UTF-8"?>
<svg width="67px" height="67px" viewBox="0 0 67 67" version="1.1" xmlns="http://www.w3.org/2000/svg" xmlns:xlink="http://www.w3.org/1999/xlink">
    <!-- Generator: Sketch 48.2 (47327) - http://www.bohemiancoding.com/sketch -->
    <title>drafts-logo</title>
    <desc>Created with Sketch.</desc>
    <defs></defs>
    <g id="Page-1" stroke="none" stroke-width="1" fill="none" fill-rule="evenodd">
        <g id="drafts-logo" fill="#FFFFFF" fill-rule="nonzero">
            <g id="Group" transform="translate(6.000000, 6.000000)">
                <path d="M49.3922152,43.1961076 C49.3922152,44.7446546 50.6475606,46 52.1961076,46 C53.7446546,46 55,44.7446546 55,43.1961076 L55,2.80389242 C55,1.2553454 53.7446546,0 52.1961076,0 L11.8038924,0 C10.2553454,0 9,1.2553454 9,2.80389242 C9,4.35243944 10.2553454,5.60778484 11.8038924,5.60778484 L49.3922152,5.60778484 L49.3922152,43.1961076 Z" id="Path-2"></path>
                <path d="M38.666256,16.333744 L38.666256,31.333128 C38.666256,32.253716 39.41254,33 40.333128,33 C41.253716,33 42,32.253716 42,31.333128 L42,14.666872 C42,13.746284 41.253716,13 40.333128,13 L23.666872,13 C22.746284,13 22,13.746284 22,14.666872 C22,15.58746 22.746284,16.333744 23.666872,16.333744 L38.666256,16.333744 Z" id="Path-2"></path>
                <path d="M40.3922152,14.6077848 L40.3922152,52.1961076 C40.3922152,53.7446546 41.6475606,55 43.1961076,55 C44.7446546,55 46,53.7446546 46,52.1961076 L46,11.8038924 C46,10.2553454 44.7446546,9 43.1961076,9 L2.80389242,9 C1.2553454,9 0,10.2553454 0,11.8038924 C0,13.3524394 1.2553454,14.6077848 2.80389242,14.6077848 L40.3922152,14.6077848 Z" id="Path-2" transform="translate(23.000000, 32.000000) rotate(-180.000000) translate(-23.000000, -32.000000) "></path>
            </g>
        </g>
    </g>
</svg>