<?xml version="1.0" encoding="UTF-8"?>
<svg width="80px" height="80px" viewBox="0 0 80 80" version="1.1" xmlns="http://www.w3.org/2000/svg" xmlns:xlink="http://www.w3.org/1999/xlink">
    <!-- Generator: Sketch 49 (51002) - http://www.bohemiancoding.com/sketch -->
    <title>feature-themes</title>
    <desc>Created with Sketch.</desc>
    <defs>
        <rect id="path-1" x="4" y="4" width="35" height="35" rx="9"></rect>
        <rect id="path-2" x="42" y="4" width="35" height="35" rx="9"></rect>
        <rect id="path-3" x="4" y="41" width="35" height="35" rx="9"></rect>
        <rect id="path-4" x="42" y="41" width="35" height="35" rx="9"></rect>
    </defs>
    <g id="feature-themes" stroke="none" stroke-width="1" fill="none" fill-rule="evenodd">
        <g id="Rectangle">
            <use fill="#FDF6E3" fill-rule="evenodd" xlink:href="#path-1"></use>
            <rect stroke="#979797" stroke-width="0.5" x="4.25" y="4.25" width="34.5" height="34.5" rx="9"></rect>
        </g>
        <text id="Aa" font-family="SFUIDisplay-Medium, SF UI Display" font-size="20" font-weight="400" fill="#586E75">
            <tspan x="10.3203125" y="28">Aa</tspan>
        </text>
        <g id="Rectangle">
            <use fill="#000000" fill-rule="evenodd" xlink:href="#path-2"></use>
            <rect stroke="#979797" stroke-width="0.5" x="42.25" y="4.25" width="34.5" height="34.5" rx="9"></rect>
        </g>
        <text id="Aa" font-family="SFUIDisplay-Medium, SF UI Display" font-size="20" font-weight="400" fill="#FFFFFF">
            <tspan x="48.3203125" y="28">Aa</tspan>
        </text>
        <g id="Rectangle">
            <use fill="#405CA0" fill-rule="evenodd" xlink:href="#path-3"></use>
            <rect stroke="#979797" stroke-width="0.5" x="4.25" y="41.25" width="34.5" height="34.5" rx="9"></rect>
        </g>
        <g id="Group" transform="translate(14.000000, 51.000000)" stroke="#FFFFFF" stroke-linecap="round" stroke-linejoin="round">
            <polyline id="Path-10" stroke-width="1.5" transform="translate(5.754628, 9.500002) rotate(-180.000000) translate(-5.754628, -9.500002) " points="3.55271368e-15 4 11.5092561 4 11.5092561 15.0000033"></polyline>
            <polyline id="Path-10" stroke-width="1.5" points="3.5 0 15.0092561 0 15.0092561 11.0000033"></polyline>
            <polyline id="Path-10" points="6 3 12.274213 3 12.274213 9.03769658"></polyline>
        </g>
        <g id="Rectangle">
            <use fill="#F8F8F8" fill-rule="evenodd" xlink:href="#path-4"></use>
            <rect stroke="#979797" stroke-width="0.5" x="42.25" y="41.25" width="34.5" height="34.5" rx="9"></rect>
        </g>
        <g id="Group" transform="translate(52.000000, 51.000000)" stroke="#000000" stroke-linecap="round" stroke-linejoin="round">
            <polyline id="Path-10" stroke-width="1.5" transform="translate(5.754628, 9.500002) rotate(-180.000000) translate(-5.754628, -9.500002) " points="3.55271368e-15 4 11.5092561 4 11.5092561 15.0000033"></polyline>
            <polyline id="Path-10" stroke-width="1.5" points="3.5 0 15.0092561 0 15.0092561 11.0000033"></polyline>
            <polyline id="Path-10" points="6 3 12.274213 3 12.274213 9.03769658"></polyline>
        </g>
    </g>
</svg>